<svg id="Capa_1" enable-background="new 0 0 512 512" height="512" viewBox="0 0 512 512" width="512" xmlns="http://www.w3.org/2000/svg"><g><g><path d="m512 256c0 108.687-67.768 201.585-163.359 238.715h-32.655c-7.168 0-12.974 5.806-12.974 12.974-15.237 2.837-30.956 4.311-47.012 4.311-141.363 0-256-114.637-256-256 0-46.08 12.186-89.344 33.536-126.72.051-.102.102-.205.154-.256 44.083-77.107 127.129-129.024 222.31-129.024s178.227 51.917 222.31 129.024c.051.051.102.154.154.256 21.35 37.376 33.536 80.64 33.536 126.72z" fill="#ffe706"/><g><path d="m512 256c0 108.687-67.768 201.585-163.359 238.715h-32.655c-7.168 0-12.974 5.806-12.974 12.974-15.237 2.837-30.956 4.311-47.012 4.311-141.363 0-256-114.637-256-256 0-46.08 12.186-89.344 33.536-126.72.051-.102.102-.205.154-.256 25.395 44.39 63.693 80.435 109.824 103.014 5.222 2.56 10.598 4.966 16.026 7.168 29.03 11.827 60.723 18.483 93.901 18.79h5.12c33.178-.307 64.87-6.963 93.901-18.79 5.427-2.202 10.803-4.608 16.026-7.168 46.08-22.579 84.429-58.624 109.824-103.014.051.051.102.154.154.256 21.348 37.376 33.534 80.64 33.534 126.72z" fill="#ffbf03"/></g></g><g><g><path d="m212.56 448.56-5.38 2.53-124.17-73.48 19.77-32.88c16.23-4.47 26-21.01 22.08-37.38l55.8-95 124.16 73.45c6.79 68.31-30.16 133.5-92.26 162.76z" fill="#00b3ff"/><path d="m428.73 358.87-55.92 94.93c-18.32 1.45-29.66 20.64-22.08 37.38l-2.09 3.53c-14.61 5.68-29.87 10.05-45.63 12.98l-95.82-56.6 97.62-165.29z" fill="#0275fa"/><path d="m226.755 417.955-123.972-73.226 22.081-37.383 123.972 73.227c8.916 16.793-3.07 37.085-22.081 37.382z" fill="#4c1760"/><path d="m373.062 400.776c-1.328-4.477-4.277-8.489-8.628-11.059-9.104-5.378-20.843-2.352-26.221 6.753s-2.362 20.846 6.743 26.224c4.351 2.57 9.288 3.217 13.85 2.218 5.014-1.104 9.566-4.208 12.377-8.968 2.812-4.759 3.333-10.244 1.879-15.168z" fill="#ffe706"/><g fill="#fff"><path d="m167.904 276.383h65.591v16.595h-65.591z" transform="matrix(.861 .509 -.509 .861 172.676 -62.505)"/><path d="m152.795 298.481h40.108v16.595h-40.108z" transform="matrix(.861 .509 -.509 .861 180.043 -45.27)"/></g></g><path d="m278.073 363.885h43.417v143.983h-43.417z" fill="#3a004d" transform="matrix(.509 -.861 .861 .509 -227.978 472.318)"/></g><g><g><path d="m276.02 247.59-1.87 5.64-138.57 39.48-10.45-37.28c7.95-14.84 2.72-33.32-11.83-41.78l-28.14-99.161 138.7-39.22c54.15 42.21 73.82 107.171 52.16 172.321z" fill="#ff3ea8"/><path d="m412.82 213.84-138.67 39.39-50.29-177.961 138.36-39.15 28.15 99.081c-11.59 14.26-5.52 35.7 11.83 41.77z" fill="#ff0074"/><path d="m263.662 216.199-138.536 39.229-11.829-41.774 138.536-39.229c18.308 5.13 24.729 27.807 11.829 41.774z" fill="#4c1760"/><path d="m366.482 109.271c-1.506-5.319-5.117-9.48-9.685-11.825-4.157-2.127-9.096-2.76-13.958-1.383-10.174 2.881-16.082 13.467-13.201 23.641s13.462 16.091 23.636 13.21c4.863-1.377 8.737-4.505 11.161-8.496 2.659-4.391 3.553-9.828 2.047-15.147z" fill="#ffe706"/><g fill="#fff"><path d="m116.411 134.82h65.591v16.595h-65.591z" transform="matrix(.962 -.273 .273 .962 -33.349 46.067)"/><path d="m125.936 170.227h40.108v16.595h-40.108z" transform="matrix(.962 -.273 .273 .962 -43.117 46.53)"/></g></g><path d="m255.024 153.989h143.983v43.417h-143.983z" fill="#3a004d" transform="matrix(.962 -.273 .273 .962 -35.498 95.745)"/></g></g></svg>